<svg width="171" height="26" viewBox="0 0 171 26" fill="none" xmlns="http://www.w3.org/2000/svg">
<path fill-rule="evenodd" clip-rule="evenodd" d="M6.701 12.8767C6.65701 14.5056 6.40704 16.4956 5.12105 17.0131C4.98022 17.0267 4.83744 17.0337 4.69302 17.0337C2.26963 17.0337 0.305173 15.0692 0.305173 12.6458C0.305173 10.2225 2.26963 8.258 4.69302 8.258C5.37373 8.258 6.01829 8.41303 6.59321 8.68965C6.63837 8.71599 6.67802 8.75045 6.701 8.81213V12.8767ZM17.9791 3.43616L17.8585 16.9999H17.8329L17.833 17.4293C17.833 17.8126 17.6971 17.6147 17.5758 17.4383C16.1548 15.372 6.82136 1.11457 6.93578 1.11457V8.52017L6.93708 8.52312C8.14607 9.18258 8.5575 10.0207 9.29688 11.0729C12.3562 15.4263 14.725 20.2142 19.1658 23.4422C23.9908 27.3027 31.393 25.2181 33.4564 19.3766C33.6983 18.7714 33.8201 18.118 34.0042 17.4224C34.0437 17.2729 34.0598 17.3007 33.8999 17.3007C32.3803 17.3007 30.8607 17.3007 29.3411 17.3007C29.2352 17.3007 29.219 17.2072 29.3382 17.184C29.6912 17.1151 30.056 17.0818 30.399 16.9835C31.0451 16.7731 31.3821 16.355 31.2959 15.6829C31.2138 15.0418 31.0378 14.4017 30.8186 13.7914C30.2037 12.1009 29.5597 10.4045 28.9027 8.73161C28.977 11.2968 28.9575 14.1028 27.0982 16.1204C25.0283 18.4964 20.5704 18.2948 20.4357 14.4792C20.3856 11.5293 23.3084 10.0322 25.442 8.61514C25.8691 8.33628 26.2767 8.02577 26.6782 7.71084C26.8377 7.58568 26.957 7.40933 27.1299 7.21682C26.8028 7.15285 26.5645 7.10129 26.3242 7.06029C25.842 6.97785 25.6518 7.12162 25.5597 7.61853C25.348 8.75978 23.6964 8.37011 24.152 7.18007C25.036 4.85804 25.9057 2.53066 26.7915 0.209229C26.8938 -0.0597224 27.048 -0.0767232 27.154 0.200982C28.152 2.82339 29.1406 5.44929 30.146 8.06882C30.2279 8.28226 30.3841 8.49688 30.563 8.63896C33.2729 10.7694 34.6033 13.8848 34.4035 16.9814C34.472 17.1293 34.5705 17.1218 34.7667 17.1797C34.8641 17.2084 34.8719 17.2904 34.7706 17.2971C34.6247 17.3067 34.4832 17.3161 34.377 17.3232C34.2807 17.3295 34.301 17.3332 34.2746 17.4352C34.0326 18.369 33.8056 19.1433 33.4756 19.9539C31.1174 25.7116 23.5966 27.4611 18.8361 23.5098C15.5862 21.3888 11.6577 15.3092 9.04442 11.2889C8.41102 10.3145 7.98846 9.50193 6.93848 8.87529L6.93578 8.87601V12.4485C7.03776 14.1371 7.31858 15.8214 8.29269 16.6517C8.5621 16.8615 8.91107 16.97 9.22608 17.1198C9.40597 17.2055 9.58937 17.3139 9.25024 17.3144C7.87785 17.3165 6.50499 17.3091 5.13292 17.3185C4.98808 17.332 4.84137 17.3389 4.69302 17.3389C2.10109 17.3389 0 15.2378 0 12.6458C0 10.0539 2.10109 7.95283 4.69302 7.95283C5.41149 7.95283 6.09225 8.1143 6.701 8.40288V4.94553C6.68904 4.21345 6.67409 3.48152 6.6628 2.75058C6.64366 1.97679 6.42959 0.726538 5.60537 0.507528C5.50226 0.480134 4.77054 0.329706 5.32899 0.304048C6.14812 0.266092 6.97092 0.314273 7.79075 0.284178C8.04289 0.278487 8.18922 0.356064 8.32804 0.569262C11.4267 5.28895 14.4844 10.031 17.6237 14.7233V6.90926C17.6196 6.60474 17.6157 6.30029 17.6123 5.99597C17.582 4.58292 17.7209 3.18419 17.0608 1.90011C16.681 1.16101 16.1671 0.572927 15.2815 0.444709C15.2457 0.439525 15.2136 0.408296 15.1892 0.330285C16.7135 0.330285 18.2378 0.330285 19.7621 0.330285C19.7909 0.406174 19.6754 0.434316 19.6044 0.449219C18.4396 0.692585 18.0438 2.11658 17.9791 3.43616ZM24.506 6.77692C25.0949 5.20761 25.6962 3.60538 26.3285 1.92087C27.0324 3.77577 27.7055 5.54907 28.4026 7.38587C28.1941 7.31584 28.0693 7.2705 27.9425 7.23204C27.6785 7.15205 27.4514 7.09027 27.4081 6.77166C27.3717 6.18592 26.8816 5.93488 26.4008 6.31023C26.2104 6.45118 26.1422 6.63204 25.9889 6.71241C25.6794 6.87451 25.0258 6.3682 24.506 6.77692ZM26.1407 6.77598C26.6 6.11538 27.3961 6.14509 27.2079 6.98542C26.8361 6.91245 26.4947 6.84541 26.1407 6.77598ZM23.387 10.7395C24.0537 10.1422 24.7985 9.63056 25.52 9.09647C26.1879 8.60221 26.9094 8.17013 27.3122 7.39573C27.368 7.28803 27.5626 7.3482 27.6459 7.37885C28.6159 7.73613 28.4896 7.49506 28.6426 8.60171C28.711 9.0274 28.7122 9.46391 28.7414 9.86009C28.8006 11.5639 28.5684 13.175 27.7567 14.658C27.1528 15.7615 26.3246 16.5841 25.0097 16.8178C23.4493 17.0952 21.9942 15.9455 21.8931 14.3559C21.8002 12.8937 22.3237 11.6924 23.387 10.7395ZM32.2021 13.5043C31.6223 11.98 30.9895 10.4739 30.4901 8.92029C30.5489 8.95868 30.6075 8.99902 30.6657 9.04115C32.7436 10.5442 34.5792 14.496 34.1245 16.7811C34.0664 17.0733 34.0917 17.0299 33.918 16.8335C33.2784 16.1101 32.5676 14.4192 32.2021 13.5043Z" fill="white"/>
<path d="M44.2842 4.37634V11.058H43.5802L40.474 6.5723C40.0611 5.97158 39.7669 5.49621 39.592 5.14586C39.6232 5.5902 39.6389 6.12193 39.6389 6.74127V11.058H39.0195V4.37634H39.7234L42.8483 8.9091C43.1986 9.41583 43.4895 9.88192 43.7211 10.3072C43.6897 9.32514 43.6742 8.73706 43.6742 8.54304V4.37634H44.2842Z" fill="white"/>
<path d="M49.7075 8.43978L48.3937 4.95828L47.0423 8.43978H49.7075ZM48.7504 4.35779L51.4153 11.0582H50.7117L49.9046 8.95602H46.8452L46.029 11.0582H45.3438L48.0466 4.35779H48.7504Z" fill="white"/>
<path d="M53.1147 4.92065V10.5138H54.7946C56.4274 10.5138 57.2438 9.55343 57.2438 7.63284C57.2438 6.78191 57.0421 6.11726 56.6386 5.63859C56.2352 5.15998 55.6546 4.92065 54.8977 4.92065H53.1147ZM52.4766 4.37634H54.8977C55.8986 4.37634 56.6464 4.66605 57.1405 5.24446C57.6346 5.8231 57.8821 6.60674 57.8821 7.59522C57.8821 8.60874 57.6409 9.43929 57.1593 10.0867C56.6776 10.7343 55.9426 11.0581 54.9541 11.0581H52.4766V4.37634Z" fill="white"/>
<path d="M60.068 11.058H59.4297V4.37646H60.068V11.058Z" fill="white"/>
<path d="M65.5396 8.43978L64.2257 4.95828L62.8743 8.43978H65.5396ZM64.5825 4.35779L67.2474 11.0582H66.5438L65.7367 8.95602H62.6772L61.861 11.0582H61.1758L63.8786 4.35779H64.5825Z" fill="white"/>
<path d="M74.9995 8.43978L73.6856 4.95828L72.3342 8.43978H74.9995ZM74.0424 4.35779L76.7073 11.0582H76.0037L75.1966 8.95602H72.1372L71.3209 11.0582H70.6357L73.3386 4.35779H74.0424Z" fill="white"/>
<path d="M78.3957 7.84856V10.5138H80.3946C80.6636 10.5138 80.8998 10.4983 81.1032 10.4669C81.3065 10.4357 81.5098 10.3745 81.713 10.2838C81.9163 10.1933 82.0745 10.0524 82.187 9.86154C82.2996 9.67066 82.356 9.43468 82.356 9.15288C82.356 8.88411 82.2981 8.65741 82.1824 8.47273C82.0665 8.28822 81.9024 8.15353 81.6896 8.06927C81.4768 7.98456 81.2673 7.92683 81.0609 7.89541C80.8545 7.86421 80.62 7.84856 80.3572 7.84856H78.3957ZM78.3957 4.92065V7.33248H80.5167C80.9607 7.33248 81.3361 7.23872 81.6427 7.05091C81.9493 6.86316 82.1025 6.55675 82.1025 6.13121C82.1025 5.88127 82.0541 5.67161 81.9572 5.50258C81.8601 5.33345 81.7208 5.20843 81.5396 5.12708C81.358 5.04584 81.1751 4.99102 80.9906 4.96273C80.806 4.93482 80.5917 4.92065 80.3477 4.92065H78.3957ZM77.7764 4.37634H80.6386C81.2392 4.37634 81.738 4.51411 82.1355 4.78931C82.5327 5.06468 82.7314 5.4838 82.7314 6.04672C82.7314 6.4035 82.6201 6.71935 82.3981 6.99471C82.1762 7.27008 81.9024 7.44509 81.577 7.52029C81.9899 7.60165 82.3293 7.77352 82.5953 8.03631C82.8612 8.2991 82.9939 8.66823 82.9939 9.14376C82.9939 9.76311 82.7798 10.2369 82.3511 10.5656C81.9227 10.8938 81.383 11.058 80.7326 11.058H77.7764V4.37634Z" fill="white"/>
<path d="M85.1342 4.92065V10.5138H86.8142C88.447 10.5138 89.2633 9.55343 89.2633 7.63284C89.2633 6.78191 89.0616 6.11726 88.6582 5.63859C88.2547 5.15998 87.6742 4.92065 86.9172 4.92065H85.1342ZM84.4961 4.37634H86.9172C87.9181 4.37634 88.6659 4.66605 89.1601 5.24446C89.6542 5.8231 89.9017 6.60674 89.9017 7.59522C89.9017 8.60874 89.6604 9.43929 89.1789 10.0867C88.6971 10.7343 87.9621 11.0581 86.9736 11.0581H84.4961V4.37634Z" fill="white"/>
<path d="M96.5454 4.37634V8.55255C96.5454 9.41584 96.3311 10.0727 95.9026 10.5231C95.474 10.9737 94.831 11.1988 93.9739 11.1988C93.098 11.1988 92.4398 10.9737 91.9985 10.5231C91.5577 10.0727 91.3369 9.40963 91.3369 8.53354V4.37634H91.975V8.37408C91.975 9.14376 92.1206 9.71757 92.4115 10.0962C92.7025 10.4749 93.2263 10.6638 93.9834 10.6638C94.3712 10.6638 94.6933 10.6109 94.95 10.5043C95.2066 10.3979 95.4035 10.2385 95.5412 10.0257C95.6786 9.81331 95.7744 9.57535 95.8275 9.31256C95.8804 9.04978 95.9073 8.73392 95.9073 8.36479V4.37634H96.5454Z" fill="white"/>
<path d="M102.701 10.5138V11.0581H98.3096V4.37634H98.9477V10.5138H102.701Z" fill="white"/>
<path d="M108.209 10.5138V11.0581H103.817V4.37634H104.456V10.5138H108.209Z" fill="white"/>
<path d="M112.92 8.43978L111.607 4.95828L110.255 8.43978H112.92ZM111.963 4.35779L114.628 11.0582H113.925L113.118 8.95602H110.058L109.242 11.0582H108.557L111.26 4.35779H111.963Z" fill="white"/>
<path d="M120.363 4.37634L118.082 7.62334L120.494 11.058H119.724L118.054 8.66515C117.923 8.47735 117.838 8.34755 117.801 8.27564C117.763 8.20374 117.729 8.14288 117.697 8.09272C117.666 8.12392 117.627 8.17408 117.58 8.24268C117.533 8.31168 117.482 8.38979 117.425 8.47734C117.369 8.56496 117.331 8.62445 117.313 8.65565L115.623 11.058H114.892L117.322 7.62334L115.042 4.37634H115.792L117.284 6.51611C117.341 6.59746 117.414 6.71452 117.505 6.86783C117.596 7.0213 117.66 7.12594 117.697 7.18214C117.854 6.95692 117.998 6.73177 118.129 6.50661L119.659 4.37634H120.363Z" fill="white"/>
<path d="M124.341 4.77056C123.597 4.77056 122.995 5.03973 122.535 5.57766C122.075 6.1156 121.845 6.82272 121.845 7.69842C121.845 8.59335 122.073 9.31129 122.53 9.85235C122.987 10.3936 123.594 10.6639 124.351 10.6639C125.108 10.6639 125.716 10.3949 126.176 9.85697C126.636 9.31903 126.866 8.60883 126.866 7.7267C126.866 6.84441 126.634 6.13114 126.171 5.587C125.708 5.04264 125.098 4.77056 124.341 4.77056ZM124.351 4.21692C125.283 4.21692 126.041 4.54211 126.627 5.19282C127.212 5.84352 127.504 6.69132 127.504 7.73604C127.504 8.77451 127.213 9.61456 126.631 10.2558C126.049 10.897 125.286 11.2177 124.341 11.2177C123.403 11.2177 122.646 10.8955 122.07 10.2509C121.495 9.60681 121.207 8.76231 121.207 7.71726C121.207 6.67237 121.496 5.82787 122.075 5.18353C122.654 4.5392 123.412 4.21692 124.351 4.21692Z" fill="white"/>
<path d="M129.606 4.92065V10.5138H131.286C132.919 10.5138 133.735 9.55343 133.735 7.63284C133.735 6.78191 133.533 6.11726 133.13 5.63859C132.726 5.15998 132.146 4.92065 131.389 4.92065H129.606ZM128.968 4.37634H131.389C132.39 4.37634 133.138 4.66605 133.632 5.24446C134.126 5.8231 134.373 6.60674 134.373 7.59522C134.373 8.60874 134.132 9.43929 133.65 10.0867C133.169 10.7343 132.434 11.0581 131.445 11.0581H128.968V4.37634Z" fill="white"/>
<path d="M139.235 4.37634V9.24687C139.235 10.5545 138.606 11.2082 137.349 11.2082C136.673 11.2082 136.183 11.0363 135.88 10.6921C135.576 10.348 135.425 9.83808 135.425 9.16238C135.425 9.07477 135.428 8.98738 135.434 8.8996H136.044V9.09669C136.044 9.62863 136.133 10.0257 136.312 10.2886C136.49 10.5512 136.836 10.6826 137.349 10.6826C137.849 10.6826 138.184 10.5452 138.353 10.2697C138.522 9.99447 138.606 9.59722 138.606 9.07807V4.37634H139.235Z" fill="white"/>
<path d="M144.64 8.43978L143.326 4.95828L141.975 8.43978H144.64ZM143.683 4.35779L146.348 11.0582H145.644L144.837 8.95602H141.778L140.962 11.0582H140.276L142.979 4.35779H143.683Z" fill="white"/>
<path d="M152.579 4.37634L149.933 8.29909V11.058H149.304V8.29909L146.648 4.37634H147.408L149.276 7.17302L149.642 7.76407C149.748 7.56385 149.861 7.37626 149.98 7.20109L151.857 4.37634H152.579Z" fill="white"/>
<path d="M158.256 4.37634V4.92065H154.258V7.33248H158.003V7.86751H154.258V10.5138H158.294V11.058H153.62V4.37634H158.256Z" fill="white"/>
<path d="M164.619 4.37634L162.142 11.058H161.4L158.895 4.37634H159.608L161.353 9.18117C161.516 9.63154 161.657 10.0759 161.776 10.5138C161.813 10.4012 161.879 10.1933 161.973 9.88967C162.066 9.58639 162.144 9.35343 162.207 9.19067L163.943 4.37634H164.619Z" fill="white"/>
<path d="M169.292 8.43978L167.978 4.95828L166.626 8.43978H169.292ZM168.334 4.35779L170.999 11.0582H170.296L169.489 8.95602H166.429L165.613 11.0582H164.928L167.631 4.35779H168.334Z" fill="white"/>
<path d="M39.4282 18.6004V19.6837H40.1983C40.2939 19.6837 40.3744 19.6808 40.4398 19.6749C40.5049 19.6691 40.5768 19.656 40.6549 19.6358C40.7331 19.6154 40.7963 19.5864 40.8442 19.5488C40.8921 19.511 40.9318 19.4574 40.9637 19.3878C40.9957 19.3182 41.0116 19.2343 41.0116 19.1356C41.0116 18.9268 40.9486 18.7853 40.8223 18.7113C40.6963 18.6375 40.5245 18.6004 40.3068 18.6004H39.4282ZM39.0195 18.2526H40.3809C41.0738 18.2526 41.4205 18.5382 41.4205 19.1095C41.4205 19.2893 41.3719 19.448 41.2748 19.5856C41.1775 19.7234 41.0492 19.8156 40.8897 19.862C40.9942 19.8852 41.0783 19.9186 41.1422 19.9619C41.2058 20.0056 41.2523 20.0662 41.2814 20.1447C41.3102 20.223 41.3292 20.2925 41.3378 20.3534C41.3464 20.4142 41.3539 20.5042 41.3596 20.6231C41.3596 20.6347 41.361 20.663 41.3639 20.708C41.3668 20.7528 41.3684 20.7834 41.3684 20.7993C41.3684 20.8153 41.3703 20.8435 41.3748 20.8842C41.379 20.9247 41.3827 20.9551 41.3858 20.9754C41.3885 20.9958 41.393 21.0233 41.3988 21.0582C41.4044 21.0929 41.4118 21.1211 41.4205 21.1428C41.4292 21.1645 41.4393 21.1892 41.4509 21.2169C41.4626 21.2446 41.4755 21.269 41.4901 21.2909C41.5046 21.3126 41.5205 21.3322 41.5379 21.3496H41.0682C41.0477 21.3205 41.031 21.2843 41.0182 21.2407C41.0052 21.1973 40.9957 21.146 40.9899 21.0863C40.9839 21.027 40.9796 20.9791 40.9767 20.9429C40.974 20.9064 40.9709 20.8537 40.968 20.7841C40.9653 20.7144 40.9637 20.6753 40.9637 20.6665C40.9492 20.4028 40.8948 20.2274 40.8006 20.1402C40.7064 20.0532 40.5202 20.0098 40.2417 20.0098H39.4282V21.3496H39.0195V18.2526Z" fill="white"/>
<path d="M45.4481 18.2526V18.6091H43.7124V19.5792H45.3349V19.9228H43.7124V20.9928H45.4696V21.3494H43.3037V18.2526H45.4481Z" fill="white"/>
<path d="M47.6919 18.6047V19.7356H48.4792C48.6996 19.7356 48.8715 19.6943 48.9947 19.6115C49.1179 19.5292 49.1796 19.3819 49.1796 19.1701C49.1796 19.0513 49.16 18.9527 49.1208 18.8744C49.0817 18.7961 49.0243 18.738 48.949 18.7004C48.8736 18.6628 48.7953 18.6374 48.7141 18.6244C48.6329 18.6113 48.5358 18.6047 48.4226 18.6047H47.6919ZM47.2832 18.2526H48.5575C48.8736 18.2526 49.1245 18.3242 49.3102 18.4677C49.4956 18.6113 49.5884 18.8366 49.5884 19.144C49.5884 19.7675 49.2361 20.0792 48.5316 20.0792H47.6919V21.3494H47.2832V18.2526Z" fill="white"/>
<path d="M51.7993 18.6004V19.6837H52.5694C52.6649 19.6837 52.7455 19.6808 52.8109 19.6749C52.8759 19.6691 52.9478 19.656 53.026 19.6358C53.1042 19.6154 53.1674 19.5864 53.2153 19.5488C53.2632 19.511 53.3029 19.4574 53.3348 19.3878C53.3668 19.3182 53.3827 19.2343 53.3827 19.1356C53.3827 18.9268 53.3197 18.7853 53.1934 18.7113C53.0674 18.6375 52.8956 18.6004 52.6779 18.6004H51.7993ZM51.3906 18.2526H52.7519C53.4449 18.2526 53.7916 18.5382 53.7916 19.1095C53.7916 19.2893 53.743 19.448 53.6459 19.5856C53.5486 19.7234 53.4203 19.8156 53.2608 19.862C53.3653 19.8852 53.4494 19.9186 53.5133 19.9619C53.5769 20.0056 53.6234 20.0662 53.6524 20.1447C53.6813 20.223 53.7003 20.2925 53.7089 20.3534C53.7175 20.4142 53.7249 20.5042 53.7307 20.6231C53.7307 20.6347 53.7321 20.663 53.735 20.708C53.7379 20.7528 53.7395 20.7834 53.7395 20.7993C53.7395 20.8153 53.7414 20.8435 53.7458 20.8842C53.7501 20.9247 53.7538 20.9551 53.7569 20.9754C53.7596 20.9958 53.7641 21.0233 53.7699 21.0582C53.7755 21.0929 53.7829 21.1211 53.7916 21.1428C53.8003 21.1645 53.8104 21.1892 53.822 21.2169C53.8337 21.2446 53.8466 21.269 53.8611 21.2909C53.8757 21.3126 53.8916 21.3322 53.909 21.3496H53.4393C53.4188 21.3205 53.4021 21.2843 53.3893 21.2407C53.3763 21.1973 53.3668 21.146 53.361 21.0863C53.355 21.027 53.3507 20.9791 53.3478 20.9429C53.3451 20.9064 53.342 20.8537 53.3391 20.7841C53.3364 20.7144 53.3348 20.6753 53.3348 20.6665C53.3203 20.4028 53.2658 20.2274 53.1717 20.1402C53.0775 20.0532 52.8913 20.0098 52.6128 20.0098H51.7993V21.3496H51.3906V18.2526Z" fill="white"/>
<path d="M56.9789 18.5352C56.634 18.5352 56.3693 18.6563 56.1852 18.8983C56.0009 19.1404 55.9091 19.4398 55.9091 19.7966C55.9091 20.1852 56.0067 20.4946 56.2026 20.7253C56.3983 20.9558 56.66 21.0711 56.9876 21.0711C57.3124 21.0711 57.5721 20.955 57.7663 20.723C57.9604 20.491 58.0577 20.1822 58.0577 19.7966C58.0577 19.4138 57.9598 19.1078 57.7641 18.8786C57.5684 18.6497 57.3066 18.5352 56.9789 18.5352ZM56.9789 18.1785C57.4488 18.1785 57.8143 18.3257 58.0751 18.6199C58.3362 18.9143 58.4666 19.2991 58.4666 19.7746C58.4666 20.2533 58.3375 20.6476 58.0796 20.9579C57.8215 21.2683 57.456 21.4233 56.9832 21.4233C56.7425 21.4233 56.5267 21.3799 56.3354 21.2928C56.1437 21.2057 55.9879 21.0856 55.8678 20.9317C55.7474 20.7781 55.6559 20.6027 55.5938 20.4054C55.5312 20.2083 55.5 19.9952 55.5 19.7661C55.5 19.2819 55.6343 18.896 55.9025 18.609C56.1706 18.3218 56.5295 18.1785 56.9789 18.1785Z" fill="white"/>
<path d="M60.6938 18.6047V20.9971H61.3159C61.7046 20.9971 61.9866 20.902 62.1619 20.7122C62.3373 20.5223 62.4253 20.2257 62.4253 19.8226C62.4253 19.3993 62.3394 19.0905 62.1683 18.8961C61.9974 18.702 61.7073 18.6047 61.2985 18.6047H60.6938ZM60.2852 18.2526H61.2942C61.8191 18.2526 62.2061 18.3742 62.4555 18.6176C62.7049 18.8612 62.8295 19.247 62.8295 19.7747C62.8295 20.2938 62.7136 20.6861 62.4817 20.9514C62.2495 21.2167 61.8784 21.3494 61.368 21.3494H60.2852V18.2526Z" fill="white"/>
<path d="M64.6299 18.2526H65.0432V20.2055C65.0432 20.5072 65.1083 20.7274 65.239 20.8667C65.3692 21.0058 65.5825 21.0754 65.8782 21.0754C66.1829 21.0754 66.398 21.0045 66.5241 20.8624C66.6504 20.7202 66.7134 20.5012 66.7134 20.2055V18.2526H67.1266V20.0968C67.1266 20.5493 67.0322 20.8818 66.8439 21.0949C66.6553 21.3083 66.3334 21.4147 65.8782 21.4147C65.4374 21.4147 65.1192 21.311 64.9235 21.1037C64.7278 20.8965 64.6299 20.5752 64.6299 20.1402V18.2526Z" fill="white"/>
<path d="M71.6118 18.2526L70.3071 19.4965L71.6641 21.3494H71.1421L70.0199 19.7747L69.5066 20.2621V21.3494H69.0977V18.2526H69.5066V19.7879L71.0768 18.2526H71.6118Z" fill="white"/>
<path d="M75.453 18.2526V18.6091H74.4134V21.3494H74.0043V18.6091H72.9648V18.2526H75.453Z" fill="white"/>
<path d="M77.5308 21.3494H77.1221V18.2526H77.5308V21.3494Z" fill="white"/>
<path d="M79.1846 18.2526H79.6369L80.5287 20.9492L81.429 18.2526H81.8597L80.755 21.3494H80.285L79.1846 18.2526Z" fill="white"/>
<path d="M86.4399 18.6047V19.7356H87.2273C87.4476 19.7356 87.6195 19.6943 87.7428 19.6115C87.866 19.5292 87.9276 19.3819 87.9276 19.1701C87.9276 19.0513 87.9081 18.9527 87.8689 18.8744C87.8298 18.7961 87.7724 18.738 87.697 18.7004C87.6217 18.6628 87.5434 18.6374 87.4621 18.6244C87.3809 18.6113 87.2839 18.6047 87.1707 18.6047H86.4399ZM86.0312 18.2526H87.3056C87.6217 18.2526 87.8726 18.3242 88.0582 18.4677C88.2437 18.6113 88.3365 18.8366 88.3365 19.144C88.3365 19.7675 87.9842 20.0792 87.2796 20.0792H86.4399V21.3494H86.0312V18.2526Z" fill="white"/>
<path d="M92.3292 19.1614H91.9335C91.8899 18.7411 91.6333 18.5308 91.1634 18.5308C90.9402 18.5308 90.7677 18.5758 90.6458 18.6655C90.5243 18.7554 90.4633 18.8818 90.4633 19.0442C90.4633 19.1021 90.472 19.1527 90.4894 19.1963C90.5069 19.2397 90.5365 19.2783 90.5786 19.3114C90.6206 19.3449 90.6605 19.3732 90.6981 19.3965C90.7357 19.4195 90.7952 19.4428 90.8764 19.4659C90.9576 19.4891 91.0229 19.5057 91.0723 19.516C91.1215 19.5263 91.1983 19.543 91.3027 19.566C91.4302 19.5922 91.536 19.616 91.6203 19.6377C91.7042 19.6594 91.8044 19.6951 91.9205 19.7443C92.0362 19.7937 92.1284 19.8482 92.1964 19.9074C92.2646 19.9669 92.3241 20.0458 92.3749 20.1445C92.4257 20.2431 92.4511 20.3547 92.4511 20.4795C92.4511 20.697 92.3901 20.8789 92.2685 21.0254C92.1467 21.1719 91.9988 21.274 91.8245 21.332C91.6507 21.3899 91.4577 21.419 91.2461 21.419C90.8574 21.419 90.5466 21.3269 90.3132 21.1428C90.0797 20.9585 89.9629 20.6869 89.9629 20.3272H90.3588C90.3675 20.5911 90.4559 20.7831 90.6241 20.9035C90.7923 21.0239 91.0112 21.0841 91.281 21.0841C91.4926 21.0841 91.6738 21.0397 91.8245 20.9514C91.9755 20.863 92.0507 20.7187 92.0507 20.5187C92.0507 20.4258 92.0305 20.3468 91.99 20.2815C91.9493 20.2162 91.8856 20.1627 91.7986 20.1206C91.7114 20.0786 91.6246 20.0445 91.5376 20.0185C91.4506 19.9924 91.336 19.9635 91.194 19.9315C91.1737 19.9286 91.1591 19.9255 91.1504 19.9228C90.8315 19.8503 90.6226 19.7921 90.5243 19.7486C90.2225 19.6181 90.0718 19.3936 90.0718 19.0746C90.0718 18.7787 90.1811 18.5576 90.4001 18.4111C90.619 18.2647 90.8836 18.1915 91.194 18.1915C91.5333 18.1915 91.8044 18.2727 92.0073 18.4351C92.2104 18.5975 92.3175 18.8397 92.3292 19.1614Z" fill="white"/>
<path d="M94.687 21.3494H94.2783V18.2526H94.687V21.3494Z" fill="white"/>
<path d="M98.936 18.2526L97.9053 19.753L98.9926 21.3494H98.4967L97.6617 20.0749L96.7959 21.3494H96.3262L97.4179 19.753L96.3959 18.2526H96.8873L97.666 19.4441L98.4708 18.2526H98.936Z" fill="white"/>
<path d="M101.959 18.5352C101.615 18.5352 101.35 18.6563 101.166 18.8983C100.981 19.1404 100.89 19.4398 100.89 19.7966C100.89 20.1852 100.987 20.4946 101.183 20.7253C101.379 20.9558 101.64 21.0711 101.968 21.0711C102.293 21.0711 102.553 20.955 102.747 20.723C102.941 20.491 103.038 20.1822 103.038 19.7966C103.038 19.4138 102.94 19.1078 102.745 18.8786C102.549 18.6497 102.287 18.5352 101.959 18.5352ZM101.959 18.1785C102.429 18.1785 102.795 18.3257 103.056 18.6199C103.317 18.9143 103.447 19.2991 103.447 19.7746C103.447 20.2533 103.318 20.6476 103.06 20.9579C102.802 21.2683 102.436 21.4233 101.964 21.4233C101.723 21.4233 101.507 21.3799 101.316 21.2928C101.124 21.2057 100.968 21.0856 100.848 20.9317C100.728 20.7781 100.636 20.6027 100.574 20.4054C100.512 20.2083 100.48 19.9952 100.48 19.7661C100.48 19.2819 100.615 18.896 100.883 18.609C101.151 18.3218 101.51 18.1785 101.959 18.1785Z" fill="white"/>
<path d="M107.323 20.9926V21.3494H105.27V18.2523H105.678V20.9926H107.323Z" fill="white"/>
<path d="M110.293 18.5352C109.948 18.5352 109.684 18.6563 109.5 18.8983C109.315 19.1404 109.224 19.4398 109.224 19.7966C109.224 20.1852 109.321 20.4946 109.517 20.7253C109.713 20.9558 109.974 21.0711 110.302 21.0711C110.627 21.0711 110.887 20.955 111.081 20.723C111.275 20.491 111.372 20.1822 111.372 19.7966C111.372 19.4138 111.274 19.1078 111.079 18.8786C110.883 18.6497 110.621 18.5352 110.293 18.5352ZM110.293 18.1785C110.763 18.1785 111.129 18.3257 111.39 18.6199C111.651 18.9143 111.781 19.2991 111.781 19.7746C111.781 20.2533 111.652 20.6476 111.394 20.9579C111.136 21.2683 110.77 21.4233 110.298 21.4233C110.057 21.4233 109.841 21.3799 109.65 21.2928C109.458 21.2057 109.302 21.0856 109.182 20.9317C109.062 20.7781 108.97 20.6027 108.908 20.4054C108.846 20.2083 108.814 19.9952 108.814 19.7661C108.814 19.2819 108.949 18.896 109.217 18.609C109.485 18.3218 109.844 18.1785 110.293 18.1785Z" fill="white"/>
<path d="M116.288 19.7096V21.3494H116.027L115.922 20.9622C115.673 21.2697 115.339 21.4234 114.922 21.4234C114.481 21.4234 114.125 21.2761 113.854 20.9818C113.583 20.6876 113.447 20.3026 113.447 19.8268C113.447 19.3544 113.581 18.9628 113.85 18.6525C114.118 18.3423 114.485 18.1873 114.952 18.1873C115.167 18.1873 115.367 18.2241 115.553 18.2981C115.738 18.3721 115.896 18.488 116.027 18.6461C116.157 18.8041 116.231 18.9903 116.249 19.205H115.848C115.816 19.0021 115.718 18.8389 115.555 18.7155C115.391 18.5923 115.19 18.5308 114.952 18.5308C114.616 18.5308 114.349 18.6461 114.152 18.8765C113.955 19.1071 113.856 19.4195 113.856 19.8139C113.856 20.2026 113.955 20.5115 114.152 20.7403C114.349 20.9695 114.614 21.0841 114.948 21.0841C115.261 21.0841 115.5 20.9891 115.663 20.799C115.827 20.6093 115.914 20.3576 115.922 20.0445H114.93V19.7096H116.288Z" fill="white"/>
</svg>
